<?xml version="1.0" encoding="UTF-8"?>
<!DOCTYPE svg PUBLIC "-//W3C//DTD SVG 1.1//EN" "http://www.w3.org/Graphics/SVG/1.1/DTD/svg11.dtd">
<!-- Creator: CorelDRAW 2021 (64 Bit) -->
<svg xmlns="http://www.w3.org/2000/svg" xml:space="preserve" width="170mm" height="170mm" version="1.1" style="shape-rendering:geometricPrecision; text-rendering:geometricPrecision; image-rendering:optimizeQuality; fill-rule:evenodd; clip-rule:evenodd"
viewBox="0 0 17000 17000"
 xmlns:xlink="http://www.w3.org/1999/xlink"
 xmlns:xodm="http://www.corel.com/coreldraw/odm/2003">
 <defs>
  <style type="text/css">
   <![CDATA[
    .str0 {stroke:white;stroke-width:1000;stroke-miterlimit:22.9256}
    .fil1 {fill:none}
    .fil0 {fill:url(#id0);fill-rule:nonzero}
   ]]>
  </style>
  <linearGradient id="id0" gradientUnits="userSpaceOnUse" x1="396.82" y1="8462.37" x2="16600.23" y2="8462.37">
   <stop offset="0" style="stop-opacity:1; stop-color:#FFDB6E"/>
   <stop offset="1" style="stop-opacity:1; stop-color:#FFBC5E"/>
  </linearGradient>
 </defs>
 <g id="Camada_x0020_1">
  <metadata id="CorelCorpID_0Corel-Layer"/>
  <g id="_2410624600720">
   <path class="fil0" d="M396.79 8506.13c0,-4474.46 3627.27,-8101.73 8101.74,-8101.73l3722.41 0c2418.61,0 4379.32,1960.71 4379.32,4379.32l0 3722.41c0,4474.43 -3627.31,8101.74 -8101.73,8101.74l0 0c-4474.47,0 -8101.74,-3627.31 -8101.74,-8101.74l0 0z"/>
   <g>
    <path class="fil1 str0" d="M11390.04 8556.12l-1402.46 2429.12c-18.36,31.8 -49.88,50 -86.6,50l-2804.89 0c-36.72,0 -68.24,-18.2 -86.6,-50l-1402.46 -2429.12c-18.36,-31.8 -18.36,-68.2 0,-100l1402.46 -2429.11c18.36,-31.8 49.88,-50 86.6,-50l2804.89 0c36.72,0 68.24,18.2 86.6,50l1402.46 2429.11c18.36,31.8 18.36,68.2 0,100z"/>
   </g>
   <polygon class="fil1 str0" points="11303.44,8506.12 10602.21,9720.69 9900.98,10935.24 8498.53,10935.24 7096.09,10935.24 6394.86,9720.69 5693.63,8506.12 6394.86,7291.56 7096.09,6077.01 8498.53,6077.01 9900.98,6077.01 10602.21,7291.56 "/>
   <g>
    <path class="fil1 str0" d="M13612.97 8506.13l-1373.59 -2379.11c-27.54,-47.7 -11.1,-109.06 36.6,-136.6 47.7,-27.54 109.06,-11.1 136.6,36.6l1402.46 2429.11c18.36,31.8 18.36,68.2 0,100l-1402.46 2429.12c-27.54,47.7 -88.9,64.14 -136.6,36.6 -47.7,-27.54 -64.14,-88.9 -36.6,-136.6l1373.59 -2379.12zm-10228.87 0l1373.59 2379.12c27.54,47.7 11.1,109.06 -36.6,136.6 -47.7,27.54 -109.06,11.1 -136.6,-36.6l-1402.46 -2429.12c-18.36,-31.8 -18.36,-68.2 0,-100l1402.46 -2429.11c27.54,-47.7 88.9,-64.14 136.6,-36.6 47.7,27.54 64.14,88.9 36.6,136.6l-1373.59 2379.11z"/>
   </g>
   <path class="fil1 str0" d="M12325.98 6077.02l701.23 1214.55 701.23 1214.56 -701.23 1214.57 -701.23 1214.55m-7654.89 0l-701.23 -1214.55 -701.23 -1214.57 701.23 -1214.56 701.23 -1214.55"/>
  </g>
 </g>
</svg>
